<svg fill="none" height="383" viewBox="0 0 355 383" width="355" xmlns="http://www.w3.org/2000/svg" xmlns:xlink="http://www.w3.org/1999/xlink"><filter id="a" color-interpolation-filters="sRGB" filterUnits="userSpaceOnUse" height="54.4617" width="54.4615" x="90.8718" y="160.771"><feFlood flood-opacity="0" result="BackgroundImageFix"/><feGaussianBlur in="BackgroundImageFix" stdDeviation="10"/><feComposite in2="SourceAlpha" operator="in" result="effect1_backgroundBlur_28_917"/><feBlend in="SourceGraphic" in2="effect1_backgroundBlur_28_917" mode="normal" result="shape"/></filter><filter id="b" color-interpolation-filters="sRGB" filterUnits="userSpaceOnUse" height="54.4617" width="54.4615" x="208.975" y="160.771"><feFlood flood-opacity="0" result="BackgroundImageFix"/><feGaussianBlur in="BackgroundImageFix" stdDeviation="10"/><feComposite in2="SourceAlpha" operator="in" result="effect1_backgroundBlur_28_917"/><feBlend in="SourceGraphic" in2="effect1_backgroundBlur_28_917" mode="normal" result="shape"/></filter><filter id="c" color-interpolation-filters="sRGB" filterUnits="userSpaceOnUse" height="54.4617" width="54.4615" x="149.923" y="196.922"><feFlood flood-opacity="0" result="BackgroundImageFix"/><feGaussianBlur in="BackgroundImageFix" stdDeviation="10"/><feComposite in2="SourceAlpha" operator="in" result="effect1_backgroundBlur_28_917"/><feBlend in="SourceGraphic" in2="effect1_backgroundBlur_28_917" mode="normal" result="shape"/></filter><filter id="d" color-interpolation-filters="sRGB" filterUnits="userSpaceOnUse" height="54.4617" width="54.4615" x="90.8718" y="88.4639"><feFlood flood-opacity="0" result="BackgroundImageFix"/><feGaussianBlur in="BackgroundImageFix" stdDeviation="10"/><feComposite in2="SourceAlpha" operator="in" result="effect1_backgroundBlur_28_917"/><feBlend in="SourceGraphic" in2="effect1_backgroundBlur_28_917" mode="normal" result="shape"/></filter><filter id="e" color-interpolation-filters="sRGB" filterUnits="userSpaceOnUse" height="54.4617" width="54.4615" x="208.975" y="88.4639"><feFlood flood-opacity="0" result="BackgroundImageFix"/><feGaussianBlur in="BackgroundImageFix" stdDeviation="10"/><feComposite in2="SourceAlpha" operator="in" result="effect1_backgroundBlur_28_917"/><feBlend in="SourceGraphic" in2="effect1_backgroundBlur_28_917" mode="normal" result="shape"/></filter><filter id="f" color-interpolation-filters="sRGB" filterUnits="userSpaceOnUse" height="54.4617" width="54.4615" x="149.923" y="124.614"><feFlood flood-opacity="0" result="BackgroundImageFix"/><feGaussianBlur in="BackgroundImageFix" stdDeviation="10"/><feComposite in2="SourceAlpha" operator="in" result="effect1_backgroundBlur_28_917"/><feBlend in="SourceGraphic" in2="effect1_backgroundBlur_28_917" mode="normal" result="shape"/></filter><filter id="g" color-interpolation-filters="sRGB" filterUnits="userSpaceOnUse" height="54.4617" width="54.4615" x="90.8718" y="233.079"><feFlood flood-opacity="0" result="BackgroundImageFix"/><feGaussianBlur in="BackgroundImageFix" stdDeviation="10"/><feComposite in2="SourceAlpha" operator="in" result="effect1_backgroundBlur_28_917"/><feBlend in="SourceGraphic" in2="effect1_backgroundBlur_28_917" mode="normal" result="shape"/></filter><filter id="h" color-interpolation-filters="sRGB" filterUnits="userSpaceOnUse" height="54.4617" width="54.4615" x="208.975" y="233.079"><feFlood flood-opacity="0" result="BackgroundImageFix"/><feGaussianBlur in="BackgroundImageFix" stdDeviation="10"/><feComposite in2="SourceAlpha" operator="in" result="effect1_backgroundBlur_28_917"/><feBlend in="SourceGraphic" in2="effect1_backgroundBlur_28_917" mode="normal" result="shape"/></filter><filter id="i" color-interpolation-filters="sRGB" filterUnits="userSpaceOnUse" height="100.595" width="94.6204" x="129.844" y="289.549"><feFlood flood-opacity="0" result="BackgroundImageFix"/><feGaussianBlur in="BackgroundImageFix" stdDeviation="8"/><feComposite in2="SourceAlpha" operator="in" result="effect1_backgroundBlur_28_917"/><feColorMatrix in="SourceAlpha" result="hardAlpha" type="matrix" values="0 0 0 0 0 0 0 0 0 0 0 0 0 0 0 0 0 0 127 0"/><feOffset dy="4"/><feGaussianBlur stdDeviation="2"/><feComposite in2="hardAlpha" operator="out"/><feColorMatrix type="matrix" values="0 0 0 0 0 0 0 0 0 0 0 0 0 0 0 0 0 0 0.25 0"/><feBlend in2="effect1_backgroundBlur_28_917" mode="normal" result="effect2_dropShadow_28_917"/><feColorMatrix in="SourceAlpha" result="hardAlpha" type="matrix" values="0 0 0 0 0 0 0 0 0 0 0 0 0 0 0 0 0 0 127 0"/><feOffset dy="4"/><feGaussianBlur stdDeviation="2"/><feComposite in2="hardAlpha" operator="out"/><feColorMatrix type="matrix" values="0 0 0 0 0 0 0 0 0 0 0 0 0 0 0 0 0 0 0.25 0"/><feBlend in2="effect2_dropShadow_28_917" mode="normal" result="effect3_dropShadow_28_917"/><feBlend in="SourceGraphic" in2="effect3_dropShadow_28_917" mode="normal" result="shape"/></filter><filter id="j" color-interpolation-filters="sRGB" filterUnits="userSpaceOnUse" height="100.595" width="94.6204" x="270.844" y="210.011"><feFlood flood-opacity="0" result="BackgroundImageFix"/><feGaussianBlur in="BackgroundImageFix" stdDeviation="8"/><feComposite in2="SourceAlpha" operator="in" result="effect1_backgroundBlur_28_917"/><feColorMatrix in="SourceAlpha" result="hardAlpha" type="matrix" values="0 0 0 0 0 0 0 0 0 0 0 0 0 0 0 0 0 0 127 0"/><feOffset dy="4"/><feGaussianBlur stdDeviation="2"/><feComposite in2="hardAlpha" operator="out"/><feColorMatrix type="matrix" values="0 0 0 0 0 0 0 0 0 0 0 0 0 0 0 0 0 0 0.25 0"/><feBlend in2="effect1_backgroundBlur_28_917" mode="normal" result="effect2_dropShadow_28_917"/><feColorMatrix in="SourceAlpha" result="hardAlpha" type="matrix" values="0 0 0 0 0 0 0 0 0 0 0 0 0 0 0 0 0 0 127 0"/><feOffset dy="4"/><feGaussianBlur stdDeviation="2"/><feComposite in2="hardAlpha" operator="out"/><feColorMatrix type="matrix" values="0 0 0 0 0 0 0 0 0 0 0 0 0 0 0 0 0 0 0.25 0"/><feBlend in2="effect2_dropShadow_28_917" mode="normal" result="effect3_dropShadow_28_917"/><feBlend in="SourceGraphic" in2="effect3_dropShadow_28_917" mode="normal" result="shape"/></filter><filter id="k" color-interpolation-filters="sRGB" filterUnits="userSpaceOnUse" height="100.595" width="94.6204" x="-11.1563" y="65.3931"><feFlood flood-opacity="0" result="BackgroundImageFix"/><feGaussianBlur in="BackgroundImageFix" stdDeviation="8"/><feComposite in2="SourceAlpha" operator="in" result="effect1_backgroundBlur_28_917"/><feColorMatrix in="SourceAlpha" result="hardAlpha" type="matrix" values="0 0 0 0 0 0 0 0 0 0 0 0 0 0 0 0 0 0 127 0"/><feOffset dy="4"/><feGaussianBlur stdDeviation="2"/><feComposite in2="hardAlpha" operator="out"/><feColorMatrix type="matrix" values="0 0 0 0 0 0 0 0 0 0 0 0 0 0 0 0 0 0 0.25 0"/><feBlend in2="effect1_backgroundBlur_28_917" mode="normal" result="effect2_dropShadow_28_917"/><feColorMatrix in="SourceAlpha" result="hardAlpha" type="matrix" values="0 0 0 0 0 0 0 0 0 0 0 0 0 0 0 0 0 0 127 0"/><feOffset dy="4"/><feGaussianBlur stdDeviation="2"/><feComposite in2="hardAlpha" operator="out"/><feColorMatrix type="matrix" values="0 0 0 0 0 0 0 0 0 0 0 0 0 0 0 0 0 0 0.25 0"/><feBlend in2="effect2_dropShadow_28_917" mode="normal" result="effect3_dropShadow_28_917"/><feBlend in="SourceGraphic" in2="effect3_dropShadow_28_917" mode="normal" result="shape"/></filter><filter id="l" color-interpolation-filters="sRGB" filterUnits="userSpaceOnUse" height="100.595" width="94.6204" x="270.844" y="65.3931"><feFlood flood-opacity="0" result="BackgroundImageFix"/><feGaussianBlur in="BackgroundImageFix" stdDeviation="8"/><feComposite in2="SourceAlpha" operator="in" result="effect1_backgroundBlur_28_917"/><feColorMatrix in="SourceAlpha" result="hardAlpha" type="matrix" values="0 0 0 0 0 0 0 0 0 0 0 0 0 0 0 0 0 0 127 0"/><feOffset dy="4"/><feGaussianBlur stdDeviation="2"/><feComposite in2="hardAlpha" operator="out"/><feColorMatrix type="matrix" values="0 0 0 0 0 0 0 0 0 0 0 0 0 0 0 0 0 0 0.25 0"/><feBlend in2="effect1_backgroundBlur_28_917" mode="normal" result="effect2_dropShadow_28_917"/><feColorMatrix in="SourceAlpha" result="hardAlpha" type="matrix" values="0 0 0 0 0 0 0 0 0 0 0 0 0 0 0 0 0 0 127 0"/><feOffset dy="4"/><feGaussianBlur stdDeviation="2"/><feComposite in2="hardAlpha" operator="out"/><feColorMatrix type="matrix" values="0 0 0 0 0 0 0 0 0 0 0 0 0 0 0 0 0 0 0.25 0"/><feBlend in2="effect2_dropShadow_28_917" mode="normal" result="effect3_dropShadow_28_917"/><feBlend in="SourceGraphic" in2="effect3_dropShadow_28_917" mode="normal" result="shape"/></filter><filter id="m" color-interpolation-filters="sRGB" filterUnits="userSpaceOnUse" height="100.595" width="94.6204" x="-11.1563" y="210.011"><feFlood flood-opacity="0" result="BackgroundImageFix"/><feGaussianBlur in="BackgroundImageFix" stdDeviation="8"/><feComposite in2="SourceAlpha" operator="in" result="effect1_backgroundBlur_28_917"/><feColorMatrix in="SourceAlpha" result="hardAlpha" type="matrix" values="0 0 0 0 0 0 0 0 0 0 0 0 0 0 0 0 0 0 127 0"/><feOffset dy="4"/><feGaussianBlur stdDeviation="2"/><feComposite in2="hardAlpha" operator="out"/><feColorMatrix type="matrix" values="0 0 0 0 0 0 0 0 0 0 0 0 0 0 0 0 0 0 0.25 0"/><feBlend in2="effect1_backgroundBlur_28_917" mode="normal" result="effect2_dropShadow_28_917"/><feColorMatrix in="SourceAlpha" result="hardAlpha" type="matrix" values="0 0 0 0 0 0 0 0 0 0 0 0 0 0 0 0 0 0 127 0"/><feOffset dy="4"/><feGaussianBlur stdDeviation="2"/><feComposite in2="hardAlpha" operator="out"/><feColorMatrix type="matrix" values="0 0 0 0 0 0 0 0 0 0 0 0 0 0 0 0 0 0 0.25 0"/><feBlend in2="effect2_dropShadow_28_917" mode="normal" result="effect3_dropShadow_28_917"/><feBlend in="SourceGraphic" in2="effect3_dropShadow_28_917" mode="normal" result="shape"/></filter><filter id="n" color-interpolation-filters="sRGB" filterUnits="userSpaceOnUse" height="100.595" width="94.6204" x="129.844" y="-14.1436"><feFlood flood-opacity="0" result="BackgroundImageFix"/><feGaussianBlur in="BackgroundImageFix" stdDeviation="8"/><feComposite in2="SourceAlpha" operator="in" result="effect1_backgroundBlur_28_917"/><feColorMatrix in="SourceAlpha" result="hardAlpha" type="matrix" values="0 0 0 0 0 0 0 0 0 0 0 0 0 0 0 0 0 0 127 0"/><feOffset dy="4"/><feGaussianBlur stdDeviation="2"/><feComposite in2="hardAlpha" operator="out"/><feColorMatrix type="matrix" values="0 0 0 0 0 0 0 0 0 0 0 0 0 0 0 0 0 0 0.25 0"/><feBlend in2="effect1_backgroundBlur_28_917" mode="normal" result="effect2_dropShadow_28_917"/><feColorMatrix in="SourceAlpha" result="hardAlpha" type="matrix" values="0 0 0 0 0 0 0 0 0 0 0 0 0 0 0 0 0 0 127 0"/><feOffset dy="4"/><feGaussianBlur stdDeviation="2"/><feComposite in2="hardAlpha" operator="out"/><feColorMatrix type="matrix" values="0 0 0 0 0 0 0 0 0 0 0 0 0 0 0 0 0 0 0.25 0"/><feBlend in2="effect2_dropShadow_28_917" mode="normal" result="effect3_dropShadow_28_917"/><feBlend in="SourceGraphic" in2="effect3_dropShadow_28_917" mode="normal" result="shape"/></filter><g stroke="#2e93ff" stroke-opacity=".4" stroke-width="3"><path d="m44.5898 109.366 73.5132 78.634"/><path d="m288 133-52 55"/><path d="m44.5898 265.731 73.5132-77.731"/><path d="m309.718 265.731-73.513-77.731"/><path d="m118.103 260.911v-145.821l59.051-78.9355 59.051 78.9355v145.821l-59.051 78.936z"/><path d="m236.205 115.091v145.82"/><path d="m117.801 115.091 118.404 73.513"/><path d="m117.801 187.398 118.404 73.513"/><path d="m236.205 187.398-118.102 73.513"/><path d="m236.205 114.485-118.102 73.513"/><path d="m58.4487 115.692h62.0643"/><path d="m58.4487 260.91h62.0643"/><path d="m233.193 115.692h54.307"/><path d="m233.193 260.91h62.064"/><path d="m36.1539 260.911v-145.218l141.0001-79.5382 141 79.5382v72.157 72.459l-140.699 79.538z"/></g><g filter="url(#a)"><ellipse cx="118.103" cy="188.001" fill="#2e93ff" fill-opacity=".4" rx="7.23077" ry="7.23078"/><path d="m124.333 188.001c0 3.441-2.789 6.231-6.23 6.231-3.442 0-6.231-2.79-6.231-6.231s2.789-6.23 6.231-6.23c3.441 0 6.23 2.789 6.23 6.23z" stroke="#fff" stroke-opacity=".24" stroke-width="2"/></g><g filter="url(#b)"><ellipse cx="236.205" cy="188.001" fill="#2e93ff" fill-opacity=".4" rx="7.23077" ry="7.23078"/><path d="m242.436 188.001c0 3.441-2.789 6.231-6.231 6.231-3.441 0-6.23-2.79-6.23-6.231s2.789-6.23 6.23-6.23c3.442 0 6.231 2.789 6.231 6.23z" stroke="#fff" stroke-opacity=".24" stroke-width="2"/></g><g filter="url(#c)"><ellipse cx="177.154" cy="224.153" fill="#2e93ff" fill-opacity=".4" rx="7.23077" ry="7.23078"/><path d="m183.385 224.153c0 3.441-2.79 6.23-6.231 6.23s-6.231-2.789-6.231-6.23c0-3.442 2.79-6.231 6.231-6.231s6.231 2.789 6.231 6.231z" stroke="#fff" stroke-opacity=".24" stroke-width="2"/></g><g filter="url(#d)"><path d="m125.333 115.695c0 3.993-3.237 7.23-7.23 7.23-3.994 0-7.231-3.237-7.231-7.23 0-3.994 3.237-7.231 7.231-7.231 3.993 0 7.23 3.237 7.23 7.231z" fill="#2e93ff" fill-opacity=".4"/><path d="m124.333 115.695c0 3.441-2.789 6.23-6.23 6.23-3.442 0-6.231-2.789-6.231-6.23 0-3.442 2.789-6.231 6.231-6.231 3.441 0 6.23 2.789 6.23 6.231z" stroke="#fff" stroke-opacity=".24" stroke-width="2"/></g><g filter="url(#e)"><ellipse cx="236.205" cy="115.695" fill="#2e93ff" fill-opacity=".4" rx="7.23077" ry="7.23078"/><path d="m242.436 115.695c0 3.441-2.789 6.23-6.231 6.23-3.441 0-6.23-2.789-6.23-6.23 0-3.442 2.789-6.231 6.23-6.231 3.442 0 6.231 2.789 6.231 6.231z" stroke="#fff" stroke-opacity=".24" stroke-width="2"/></g><g filter="url(#f)"><ellipse cx="177.154" cy="151.845" fill="#2e93ff" fill-opacity=".4" rx="7.23077" ry="7.23078"/><path d="m183.385 151.845c0 3.441-2.79 6.23-6.231 6.23s-6.231-2.789-6.231-6.23c0-3.442 2.79-6.231 6.231-6.231s6.231 2.789 6.231 6.231z" stroke="#fff" stroke-opacity=".24" stroke-width="2"/></g><g filter="url(#g)"><ellipse cx="118.103" cy="260.31" fill="#2e93ff" fill-opacity=".4" rx="7.23077" ry="7.23078"/><path d="m124.333 260.31c0 3.441-2.789 6.23-6.23 6.23-3.442 0-6.231-2.789-6.231-6.23 0-3.442 2.789-6.231 6.231-6.231 3.441 0 6.23 2.789 6.23 6.231z" stroke="#fff" stroke-opacity=".24" stroke-width="2"/></g><g filter="url(#h)"><ellipse cx="236.205" cy="260.31" fill="#2e93ff" fill-opacity=".4" rx="7.23077" ry="7.23078"/><path d="m242.436 260.31c0 3.441-2.789 6.23-6.231 6.23-3.441 0-6.23-2.789-6.23-6.23 0-3.442 2.789-6.231 6.23-6.231 3.442 0 6.231 2.789 6.231 6.231z" stroke="#fff" stroke-opacity=".24" stroke-width="2"/></g><g filter="url(#i)" shape-rendering="crispEdges"><path d="m171.154 307.156c3.713-2.143 8.287-2.143 12 0l19.31 11.149c3.713 2.144 6 6.105 6 10.392v22.298c0 4.287-2.287 8.248-6 10.392l-19.31 11.149c-3.713 2.143-8.287 2.143-12 0l-19.31-11.149c-3.713-2.144-6-6.105-6-10.392v-22.298c0-4.287 2.287-8.248 6-10.392z" fill="#2e93ff" fill-opacity=".1"/><path d="m182.654 308.022 19.31 11.149c3.404 1.965 5.5 5.596 5.5 9.526v22.298c0 3.93-2.096 7.561-5.5 9.526l-19.31 11.149c-3.403 1.965-7.597 1.965-11 0l-19.31-11.149c-3.404-1.965-5.5-5.596-5.5-9.526v-22.298c0-3.93 2.096-7.561 5.5-9.526l19.31-11.149c3.403-1.965 7.597-1.965 11 0z" stroke="#fff" stroke-opacity=".16" stroke-width="2"/></g><path d="m190.159 335.838c-3.247-5.103-8-8.042-13.005-8.042-2.503 0-4.935.731-7.156 2.095-2.222 1.378-4.218 3.388-5.849 5.947-1.406 2.208-1.406 5.793 0 8 3.248 5.118 8 8.043 13.005 8.043 2.503 0 4.935-.731 7.157-2.095 2.221-1.378 4.217-3.389 5.848-5.948 1.406-2.193 1.406-5.792 0-8zm-13.005 9.688c-3.149 0-5.68-2.545-5.68-5.681 0-3.135 2.531-5.68 5.68-5.68s5.68 2.545 5.68 5.68c0 3.136-2.531 5.681-5.68 5.681z" fill="#fff" fill-opacity=".9"/><path d="m177.154 335.824c-2.207 0-4.007 1.8-4.007 4.022 0 2.207 1.8 4.007 4.007 4.007s4.021-1.8 4.021-4.007c0-2.208-1.814-4.022-4.021-4.022z" fill="#fff" fill-opacity=".9"/><g filter="url(#j)" shape-rendering="crispEdges"><path d="m312.154 227.619c3.713-2.144 8.287-2.144 12 0l19.31 11.149c3.713 2.143 6 6.105 6 10.392v22.297c0 4.288-2.287 8.249-6 10.393l-19.31 11.148c-3.713 2.144-8.287 2.144-12 0l-19.31-11.148c-3.713-2.144-6-6.105-6-10.393v-22.297c0-4.287 2.287-8.249 6-10.392z" fill="#2e93ff" fill-opacity=".1"/><path d="m323.654 228.485 19.31 11.149c3.404 1.965 5.5 5.596 5.5 9.526v22.297c0 3.93-2.096 7.562-5.5 9.527l-19.31 11.148c-3.403 1.965-7.597 1.965-11 0l-19.31-11.148c-3.404-1.965-5.5-5.597-5.5-9.527v-22.297c0-3.93 2.096-7.561 5.5-9.526l19.31-11.149c3.403-1.965 7.597-1.965 11 0z" stroke="#fff" stroke-opacity=".16" stroke-width="2"/></g><path d="m327.349 249.229-7.733-2.896c-.801-.296-2.109-.296-2.91 0l-7.733 2.896c-1.49.562-2.699 2.306-2.699 3.894v11.389c0 1.139.745 2.643 1.659 3.318l7.733 5.779c1.363 1.026 3.599 1.026 4.963 0l7.733-5.779c.913-.689 1.659-2.179 1.659-3.318v-11.389c.014-1.588-1.195-3.332-2.672-3.894zm-4.302 7.873-6.046 6.046c-.211.211-.478.309-.745.309s-.534-.098-.745-.309l-2.25-2.278c-.407-.407-.407-1.082 0-1.49.408-.408 1.083-.408 1.491 0l1.518 1.519 5.301-5.301c.407-.408 1.082-.408 1.49 0s.408 1.097-.014 1.504z" fill="#fff" fill-opacity=".9"/><g filter="url(#k)" shape-rendering="crispEdges"><path d="m30.1539 83.0007c3.7128-2.1436 8.2872-2.1436 12 0l19.3102 11.1488c3.7128 2.1436 6 6.1055 6 10.3925v22.297c0 4.287-2.2872 8.249-6 10.393l-19.3102 11.148c-3.7128 2.144-8.2872 2.144-12 0l-19.3102-11.148c-3.71282-2.144-6.00001-6.106-6.00001-10.393v-22.297c0-4.287 2.28719-8.2489 6.00001-10.3925z" fill="#2e93ff" fill-opacity=".1"/><path d="m41.6539 83.8667 19.3102 11.1488c3.4034 1.9649 5.5 5.5965 5.5 9.5265v22.297c0 3.93-2.0966 7.562-5.5 9.527l-19.3102 11.148c-3.4034 1.965-7.5966 1.965-11 0l-19.3102-11.148c-3.40342-1.965-5.50001-5.597-5.50001-9.527v-22.297c0-3.93 2.09659-7.5616 5.50001-9.5265l19.3102-11.1488c3.4034-1.9649 7.5966-1.9649 11 0z" stroke="#fff" stroke-opacity=".16" stroke-width="2"/></g><path d="m48.8077 112.883h-25.3077c-.7733 0-1.406.632-1.406 1.406v7.297c0 .281.0141.562.0422.843.2812 4.331 2.9526 7.002 7.283 7.283.2812.028.5624.042.8436.042h11.7822c.2812 0 .5624-.014.8436-.042 4.3304-.281 7.0018-2.952 7.283-7.283.0281-.281.0421-.562.0421-.843v-7.297c0-.774-.6327-1.406-1.406-1.406zm-18.2778 8.646c.4781.703 1.1248 1.28 1.87 1.659.5343.254.7452.886.478 1.42-.1827.366-.5624.577-.942.577-.1546 0-.3233-.042-.4639-.113-1.0967-.534-2.0247-1.363-2.6855-2.362-.5624-.843-.5624-1.94 0-2.783.6608-.999 1.5888-1.828 2.6855-2.362.5202-.268 1.1529-.057 1.4059.463.2672.535.0563 1.167-.478 1.421-.7452.379-1.3919.956-1.87 1.659-.0843.126-.0843.295 0 .421zm13.2866 1.181c-.6749.999-1.6028 1.828-2.6854 2.362-.1547.071-.3093.113-.464.113-.3937 0-.7592-.211-.942-.577-.2671-.534-.0563-1.166.464-1.42.7592-.379 1.4059-.956 1.8699-1.659.0984-.126.0984-.295 0-.421-.464-.703-1.1107-1.28-1.8699-1.659-.5203-.254-.7311-.886-.464-1.421.2531-.52.8858-.731 1.406-.463 1.0826.534 2.0105 1.363 2.6854 2.362.5624.843.5624 1.94 0 2.783z" fill="#fff" fill-opacity=".9"/><path d="m50.2137 109.804v.267c0 .773-.6327 1.406-1.406 1.406l-25.3077.014c-.7733 0-1.406-.633-1.406-1.406v-.281c0-.282.0141-.563.0422-.844.2812-4.33 2.9526-7.002 7.283-7.283.2812-.028.5624-.042.8436-.042h11.7822c.2812 0 .5624.014.8436.042 4.3304.281 7.0018 2.953 7.283 7.283.0281.281.0421.562.0421.844z" fill="#fff" fill-opacity=".9"/><g filter="url(#l)" shape-rendering="crispEdges"><path d="m312.154 83.0007c3.713-2.1436 8.287-2.1436 12 0l19.31 11.1488c3.713 2.1436 6 6.1055 6 10.3925v22.297c0 4.287-2.287 8.249-6 10.393l-19.31 11.148c-3.713 2.144-8.287 2.144-12 0l-19.31-11.148c-3.713-2.144-6-6.106-6-10.393v-22.297c0-4.287 2.287-8.2489 6-10.3925z" fill="#2e93ff" fill-opacity=".1"/><path d="m323.654 83.8667 19.31 11.1488c3.404 1.9649 5.5 5.5965 5.5 9.5265v22.297c0 3.93-2.096 7.562-5.5 9.527l-19.31 11.148c-3.403 1.965-7.597 1.965-11 0l-19.31-11.148c-3.404-1.965-5.5-5.597-5.5-9.527v-22.297c0-3.93 2.096-7.5616 5.5-9.5265l19.31-11.1488c3.403-1.9649 7.597-1.9649 11 0z" stroke="#fff" stroke-opacity=".16" stroke-width="2"/></g><path d="m323.778 110.071h-11.248v11.247h11.248z" fill="#fff" fill-opacity=".9"/><path d="m304.094 125.537c0 2.319 1.898 4.218 4.218 4.218s4.218-1.899 4.218-4.218v-4.218h-4.218c-2.32 0-4.218 1.898-4.218 4.218z" fill="#fff" fill-opacity=".9"/><path d="m308.312 101.635c-2.32 0-4.218 1.898-4.218 4.218s1.898 4.218 4.218 4.218h4.218v-4.218c0-2.32-1.898-4.218-4.218-4.218z" fill="#fff" fill-opacity=".9"/><path d="m332.214 105.853c0-2.32-1.898-4.218-4.218-4.218s-4.218 1.898-4.218 4.218v4.218h4.218c2.32 0 4.218-1.898 4.218-4.218z" fill="#fff" fill-opacity=".9"/><path d="m327.996 121.319h-4.218v4.218c0 2.319 1.898 4.218 4.218 4.218s4.218-1.899 4.218-4.218c0-2.32-1.898-4.218-4.218-4.218z" fill="#fff" fill-opacity=".9"/><g filter="url(#m)" shape-rendering="crispEdges"><path d="m30.1539 227.619c3.7128-2.144 8.2872-2.144 12 0l19.3102 11.149c3.7128 2.143 6 6.105 6 10.392v22.297c0 4.288-2.2872 8.249-6 10.393l-19.3102 11.148c-3.7128 2.144-8.2872 2.144-12 0l-19.3102-11.148c-3.71282-2.144-6.00001-6.105-6.00001-10.393v-22.297c0-4.287 2.28719-8.249 6.00001-10.392z" fill="#2e93ff" fill-opacity=".1"/><path d="m41.6539 228.485 19.3102 11.149c3.4034 1.965 5.5 5.596 5.5 9.526v22.297c0 3.93-2.0966 7.562-5.5 9.527l-19.3102 11.148c-3.4034 1.965-7.5966 1.965-11 0l-19.3102-11.148c-3.40342-1.965-5.50001-5.597-5.50001-9.527v-22.297c0-3.93 2.09659-7.561 5.50001-9.526l19.3102-11.149c3.4034-1.965 7.5966-1.965 11 0z" stroke="#fff" stroke-opacity=".16" stroke-width="2"/></g><path d="m46.741 251.211-19.6838 19.684c-.0282.028-.0422.042-.0703.056-.5343-.449-1.0264-.942-1.4763-1.476-2.1371-2.46-3.4166-5.666-3.4166-9.167 0-7.761 6.2989-14.06 14.0599-14.06 3.5009 0 6.7065 1.28 9.167 3.417.5343.45 1.0264.942 1.4763 1.476-.0141.028-.0281.042-.0562.07z" fill="#fff" fill-opacity=".9"/><path d="m50.2137 260.308c0 7.719-6.341 14.06-14.0598 14.06-2.109 0-4.1055-.464-5.9051-1.308-.8718-.407-1.0405-1.574-.3656-2.263l16.7593-16.76c.6749-.674 1.8559-.506 2.2637.366.8436 1.786 1.3075 3.796 1.3075 5.905z" fill="#fff" fill-opacity=".9"/><path d="m49.8904 246.572c-.4218-.422-1.1108-.422-1.5326 0l-25.9404 25.954c-.4218.422-.4218 1.111 0 1.533.2109.197.4781.309.7593.309.2811 0 .5483-.112.7592-.323l25.9545-25.955c.4358-.422.4358-1.096 0-1.518z" fill="#fff" fill-opacity=".9"/><g filter="url(#n)" shape-rendering="crispEdges"><path d="m171.154 3.46409c3.713-2.14359 8.287-2.14359 12 0l19.31 11.14871c3.713 2.1436 6 6.1052 6 10.3923v22.2975c0 4.2872-2.287 8.2487-6 10.3923l-19.31 11.1488c-3.713 2.1436-8.287 2.1436-12 0l-19.31-11.1488c-3.713-2.1436-6-6.1051-6-10.3923v-22.2975c0-4.2871 2.287-8.2487 6-10.3923z" fill="#2e93ff" fill-opacity=".1"/><path d="m182.654 4.33012 19.31 11.14878c3.404 1.9649 5.5 5.5963 5.5 9.5262v22.2975c0 3.9299-2.096 7.5613-5.5 9.5263l-19.31 11.1487c-3.403 1.965-7.597 1.965-11 0l-19.31-11.1487c-3.404-1.965-5.5-5.5964-5.5-9.5263v-22.2975c0-3.9299 2.096-7.5613 5.5-9.5262l19.31-11.14878c3.403-1.96496 7.597-1.96496 11 0z" stroke="#fff" stroke-opacity=".16" stroke-width="2"/></g><path d="m177.154 43.6756c1.266 0 2.292-1.0261 2.292-2.2918s-1.026-2.2918-2.292-2.2918-2.292 1.0261-2.292 2.2918 1.026 2.2918 2.292 2.2918z" fill="#fff" fill-opacity=".9"/><path d="m185.984 32.6808v-1.7575c0-3.7961-.914-8.8295-8.83-8.8295s-8.83 5.0334-8.83 8.8295v1.7575c-3.936.4921-5.23 2.4886-5.23 7.3955v2.6151c0 5.7646 1.758 7.5221 7.522 7.5221h13.076c5.764 0 7.522-1.7575 7.522-7.5221v-2.6151c0-4.9069-1.294-6.9034-5.23-7.3955zm-8.83 12.9491c-2.348 0-4.246-1.9121-4.246-4.246 0-2.348 1.912-4.2461 4.246-4.2461s4.246 1.9121 4.246 4.2461c0 2.348-1.898 4.246-4.246 4.246zm-6.538-13.0756c-.112 0-.211 0-.323 0v-1.631c0-4.1195 1.167-6.8612 6.861-6.8612s6.861 2.7417 6.861 6.8612v1.645c-.112 0-.211 0-.323 0h-13.076z" fill="#fff" fill-opacity=".9"/></svg>