<svg fill="none" height="383" viewBox="0 0 355 383" width="355" xmlns="http://www.w3.org/2000/svg" xmlns:xlink="http://www.w3.org/1999/xlink"><filter id="a" color-interpolation-filters="sRGB" filterUnits="userSpaceOnUse" height="108.595" width="102.62" x="125.844" y="285.549"><feFlood flood-opacity="0" result="BackgroundImageFix"/><feGaussianBlur in="BackgroundImageFix" stdDeviation="10"/><feComposite in2="SourceAlpha" operator="in" result="effect1_backgroundBlur_28_1165"/><feColorMatrix in="SourceAlpha" result="hardAlpha" type="matrix" values="0 0 0 0 0 0 0 0 0 0 0 0 0 0 0 0 0 0 127 0"/><feOffset dy="4"/><feGaussianBlur stdDeviation="2"/><feComposite in2="hardAlpha" operator="out"/><feColorMatrix type="matrix" values="0 0 0 0 0 0 0 0 0 0 0 0 0 0 0 0 0 0 0.25 0"/><feBlend in2="effect1_backgroundBlur_28_1165" mode="normal" result="effect2_dropShadow_28_1165"/><feBlend in="SourceGraphic" in2="effect2_dropShadow_28_1165" mode="normal" result="shape"/></filter><filter id="b" color-interpolation-filters="sRGB" filterUnits="userSpaceOnUse" height="108.595" width="102.62" x="266.844" y="206.011"><feFlood flood-opacity="0" result="BackgroundImageFix"/><feGaussianBlur in="BackgroundImageFix" stdDeviation="10"/><feComposite in2="SourceAlpha" operator="in" result="effect1_backgroundBlur_28_1165"/><feColorMatrix in="SourceAlpha" result="hardAlpha" type="matrix" values="0 0 0 0 0 0 0 0 0 0 0 0 0 0 0 0 0 0 127 0"/><feOffset dy="4"/><feGaussianBlur stdDeviation="2"/><feComposite in2="hardAlpha" operator="out"/><feColorMatrix type="matrix" values="0 0 0 0 0 0 0 0 0 0 0 0 0 0 0 0 0 0 0.25 0"/><feBlend in2="effect1_backgroundBlur_28_1165" mode="normal" result="effect2_dropShadow_28_1165"/><feBlend in="SourceGraphic" in2="effect2_dropShadow_28_1165" mode="normal" result="shape"/></filter><filter id="c" color-interpolation-filters="sRGB" filterUnits="userSpaceOnUse" height="108.595" width="102.62" x="-15.1562" y="61.3936"><feFlood flood-opacity="0" result="BackgroundImageFix"/><feGaussianBlur in="BackgroundImageFix" stdDeviation="10"/><feComposite in2="SourceAlpha" operator="in" result="effect1_backgroundBlur_28_1165"/><feColorMatrix in="SourceAlpha" result="hardAlpha" type="matrix" values="0 0 0 0 0 0 0 0 0 0 0 0 0 0 0 0 0 0 127 0"/><feOffset dy="4"/><feGaussianBlur stdDeviation="2"/><feComposite in2="hardAlpha" operator="out"/><feColorMatrix type="matrix" values="0 0 0 0 0 0 0 0 0 0 0 0 0 0 0 0 0 0 0.25 0"/><feBlend in2="effect1_backgroundBlur_28_1165" mode="normal" result="effect2_dropShadow_28_1165"/><feBlend in="SourceGraphic" in2="effect2_dropShadow_28_1165" mode="normal" result="shape"/></filter><filter id="d" color-interpolation-filters="sRGB" filterUnits="userSpaceOnUse" height="108.595" width="102.62" x="125.844" y="-18.1436"><feFlood flood-opacity="0" result="BackgroundImageFix"/><feGaussianBlur in="BackgroundImageFix" stdDeviation="10"/><feComposite in2="SourceAlpha" operator="in" result="effect1_backgroundBlur_28_1165"/><feColorMatrix in="SourceAlpha" result="hardAlpha" type="matrix" values="0 0 0 0 0 0 0 0 0 0 0 0 0 0 0 0 0 0 127 0"/><feOffset dy="4"/><feGaussianBlur stdDeviation="2"/><feComposite in2="hardAlpha" operator="out"/><feColorMatrix type="matrix" values="0 0 0 0 0 0 0 0 0 0 0 0 0 0 0 0 0 0 0.25 0"/><feBlend in2="effect1_backgroundBlur_28_1165" mode="normal" result="effect2_dropShadow_28_1165"/><feBlend in="SourceGraphic" in2="effect2_dropShadow_28_1165" mode="normal" result="shape"/></filter><filter id="e" color-interpolation-filters="sRGB" filterUnits="userSpaceOnUse" height="108.595" width="102.62" x="266.844" y="61.3936"><feFlood flood-opacity="0" result="BackgroundImageFix"/><feGaussianBlur in="BackgroundImageFix" stdDeviation="10"/><feComposite in2="SourceAlpha" operator="in" result="effect1_backgroundBlur_28_1165"/><feColorMatrix in="SourceAlpha" result="hardAlpha" type="matrix" values="0 0 0 0 0 0 0 0 0 0 0 0 0 0 0 0 0 0 127 0"/><feOffset dy="4"/><feGaussianBlur stdDeviation="2"/><feComposite in2="hardAlpha" operator="out"/><feColorMatrix type="matrix" values="0 0 0 0 0 0 0 0 0 0 0 0 0 0 0 0 0 0 0.25 0"/><feBlend in2="effect1_backgroundBlur_28_1165" mode="normal" result="effect2_dropShadow_28_1165"/><feBlend in="SourceGraphic" in2="effect2_dropShadow_28_1165" mode="normal" result="shape"/></filter><filter id="f" color-interpolation-filters="sRGB" filterUnits="userSpaceOnUse" height="108.595" width="102.62" x="-15.1562" y="206.011"><feFlood flood-opacity="0" result="BackgroundImageFix"/><feGaussianBlur in="BackgroundImageFix" stdDeviation="10"/><feComposite in2="SourceAlpha" operator="in" result="effect1_backgroundBlur_28_1165"/><feColorMatrix in="SourceAlpha" result="hardAlpha" type="matrix" values="0 0 0 0 0 0 0 0 0 0 0 0 0 0 0 0 0 0 127 0"/><feOffset dy="4"/><feGaussianBlur stdDeviation="2"/><feComposite in2="hardAlpha" operator="out"/><feColorMatrix type="matrix" values="0 0 0 0 0 0 0 0 0 0 0 0 0 0 0 0 0 0 0.25 0"/><feBlend in2="effect1_backgroundBlur_28_1165" mode="normal" result="effect2_dropShadow_28_1165"/><feBlend in="SourceGraphic" in2="effect2_dropShadow_28_1165" mode="normal" result="shape"/></filter><g stroke="#2e93ff" stroke-opacity=".4" stroke-width="3"><path d="m36.1543 260.911v-145.218l140.9997-79.5387 141 79.8397v144.314l-140.699 79.538z"/><path d="m44.5906 109.365 73.5124 78.635"/><path d="m309.718 109.667-73.513 78.333"/><path d="m44.5906 265.731 73.5124-77.731"/><path d="m309.718 265.731-73.513-77.731"/><path d="m118.102 260.911v-145.821l59.051-78.9357 59.051 78.9357v145.821l-59.051 78.935z"/><path d="m236.207 115.09v145.821"/><path d="m117.8 115.09 118.404 73.513"/><path d="m117.8 187.399 118.404 73.513"/><path d="m236.207 187.399-118.103 73.513"/><path d="m236.207 114.486-118.103 73.513"/><path d="m58.45 115.693h62.064"/><path d="m58.45 260.91h62.064"/><path d="m233.192 115.693h62.064"/><path d="m233.192 260.91h62.064"/></g><ellipse cx="118.102" cy="188.001" fill="#2e93ff" rx="7.23076" ry="7.23077"/><path d="m124.333 188.001c0 3.441-2.79 6.231-6.231 6.231s-6.23-2.79-6.23-6.231 2.789-6.23 6.23-6.23 6.231 2.789 6.231 6.23z" stroke="#fff" stroke-opacity=".24" stroke-width="2"/><ellipse cx="236.204" cy="188.001" fill="#2e93ff" rx="7.23076" ry="7.23077"/><path d="m242.435 188.001c0 3.441-2.79 6.231-6.231 6.231s-6.231-2.79-6.231-6.231 2.79-6.23 6.231-6.23 6.231 2.789 6.231 6.23z" stroke="#fff" stroke-opacity=".24" stroke-width="2"/><ellipse cx="177.152" cy="224.152" fill="#2e93ff" rx="7.23076" ry="7.23077"/><path d="m183.383 224.152c0 3.442-2.789 6.231-6.231 6.231-3.441 0-6.23-2.789-6.23-6.231 0-3.441 2.789-6.23 6.23-6.23 3.442 0 6.231 2.789 6.231 6.23z" stroke="#fff" stroke-opacity=".24" stroke-width="2"/><ellipse cx="118.102" cy="115.694" fill="#2e93ff" rx="7.23076" ry="7.23077"/><path d="m124.333 115.694c0 3.441-2.79 6.23-6.231 6.23s-6.23-2.789-6.23-6.23 2.789-6.231 6.23-6.231 6.231 2.79 6.231 6.231z" stroke="#fff" stroke-opacity=".24" stroke-width="2"/><ellipse cx="236.204" cy="115.694" fill="#2e93ff" fill-opacity=".9" rx="7.23076" ry="7.23077"/><path d="m242.435 115.694c0 3.441-2.79 6.23-6.231 6.23s-6.231-2.789-6.231-6.23 2.79-6.231 6.231-6.231 6.231 2.79 6.231 6.231z" stroke="#fff" stroke-opacity=".24" stroke-width="2"/><ellipse cx="177.152" cy="151.845" fill="#2e93ff" rx="7.23076" ry="7.23077"/><path d="m183.383 151.845c0 3.441-2.789 6.231-6.231 6.231-3.441 0-6.23-2.79-6.23-6.231s2.789-6.231 6.23-6.231c3.442 0 6.231 2.79 6.231 6.231z" stroke="#fff" stroke-opacity=".24" stroke-width="2"/><ellipse cx="118.102" cy="260.309" fill="#2e93ff" rx="7.23076" ry="7.23077"/><path d="m124.333 260.309c0 3.441-2.79 6.231-6.231 6.231s-6.23-2.79-6.23-6.231 2.789-6.231 6.23-6.231 6.231 2.79 6.231 6.231z" stroke="#fff" stroke-opacity=".24" stroke-width="2"/><ellipse cx="236.204" cy="260.309" fill="#2e93ff" rx="7.23076" ry="7.23077"/><path d="m242.435 260.309c0 3.441-2.79 6.231-6.231 6.231s-6.231-2.79-6.231-6.231 2.79-6.231 6.231-6.231 6.231 2.79 6.231 6.231z" stroke="#fff" stroke-opacity=".24" stroke-width="2"/><g filter="url(#a)" shape-rendering="crispEdges"><path d="m171.154 307.156c3.713-2.143 8.287-2.143 12 0l19.31 11.149c3.713 2.144 6 6.105 6 10.393v22.297c0 4.287-2.287 8.249-6 10.392l-19.31 11.149c-3.713 2.144-8.287 2.144-12 0l-19.31-11.149c-3.713-2.143-6-6.105-6-10.392v-22.297c0-4.288 2.287-8.249 6-10.393z" fill="#2e93ff" fill-opacity=".1"/><path d="m182.654 308.023 19.31 11.148c3.403 1.965 5.5 5.597 5.5 9.527v22.297c0 3.93-2.097 7.561-5.5 9.526l-19.31 11.149c-3.404 1.965-7.597 1.965-11 0l-19.31-11.149c-3.404-1.965-5.5-5.596-5.5-9.526v-22.297c0-3.93 2.096-7.562 5.5-9.527l19.31-11.148c3.403-1.965 7.596-1.965 11 0z" stroke="#fff" stroke-opacity=".8" stroke-width="2"/></g><path d="m190.159 335.838c-3.248-5.103-8-8.042-13.005-8.042-2.503 0-4.935.731-7.157 2.095-2.221 1.378-4.218 3.388-5.849 5.947-1.406 2.208-1.406 5.793 0 8 3.248 5.118 8.001 8.043 13.006 8.043 2.502 0 4.935-.731 7.156-2.095 2.222-1.378 4.218-3.389 5.849-5.948 1.406-2.193 1.406-5.792 0-8zm-13.005 9.688c-3.15 0-5.68-2.545-5.68-5.681 0-3.135 2.53-5.68 5.68-5.68 3.149 0 5.68 2.545 5.68 5.68 0 3.136-2.531 5.681-5.68 5.681z" fill="#2e93ff"/><path d="m177.154 335.824c-2.208 0-4.007 1.8-4.007 4.021 0 2.208 1.799 4.007 4.007 4.007 2.207 0 4.021-1.799 4.021-4.007 0-2.207-1.814-4.021-4.021-4.021z" fill="#2e93ff"/><g filter="url(#b)" shape-rendering="crispEdges"><path d="m312.154 227.619c3.712-2.144 8.287-2.144 12 0l19.31 11.148c3.713 2.144 6 6.105 6 10.393v22.297c0 4.287-2.287 8.249-6 10.392l-19.31 11.149c-3.713 2.144-8.288 2.144-12 0l-19.311-11.149c-3.712-2.143-6-6.105-6-10.392v-22.297c0-4.288 2.288-8.249 6-10.393z" fill="#2e93ff" fill-opacity=".1"/><path d="m323.654 228.485 19.31 11.148c3.403 1.965 5.5 5.597 5.5 9.527v22.297c0 3.93-2.097 7.561-5.5 9.526l-19.31 11.149c-3.404 1.965-7.597 1.965-11 0l-19.311-11.149c-3.403-1.965-5.5-5.596-5.5-9.526v-22.297c0-3.93 2.097-7.562 5.5-9.527l19.311-11.148c3.403-1.965 7.596-1.965 11 0z" stroke="#fff" stroke-opacity=".8" stroke-width="2"/></g><path d="m327.349 249.228-7.733-2.896c-.801-.295-2.109-.295-2.91 0l-7.733 2.896c-1.49.563-2.7 2.306-2.7 3.895v11.388c0 1.139.746 2.643 1.659 3.318l7.733 5.779c1.364 1.026 3.6 1.026 4.964 0l7.732-5.779c.914-.689 1.659-2.179 1.659-3.318v-11.388c.015-1.589-1.195-3.332-2.671-3.895zm-4.302 7.874-6.046 6.045c-.211.211-.478.31-.745.31s-.534-.099-.745-.31l-2.25-2.277c-.408-.408-.408-1.083 0-1.491.408-.407 1.083-.407 1.491 0l1.518 1.519 5.301-5.301c.407-.408 1.082-.408 1.49 0s.408 1.097-.014 1.505z" fill="#2e93ff"/><g filter="url(#c)" shape-rendering="crispEdges"><path d="m30.1538 83.0012c3.7129-2.1436 8.2872-2.1436 12 0l19.3102 11.1487c3.7128 2.1436 6 6.1051 6 10.3921v22.298c0 4.287-2.2872 8.248-6 10.392l-19.3102 11.149c-3.7128 2.143-8.2871 2.143-12 0l-19.3101-11.149c-3.71282-2.144-6-6.105-6-10.392v-22.298c0-4.287 2.28718-8.2485 6-10.3921z" fill="#2e93ff" fill-opacity=".1"/><path d="m41.6538 83.8672 19.3102 11.1487c3.4034 1.965 5.5 5.5961 5.5 9.5261v22.298c0 3.93-2.0966 7.561-5.5 9.526l-19.3102 11.149c-3.4034 1.965-7.5965 1.965-11 0l-19.3101-11.149c-3.40341-1.965-5.5-5.596-5.5-9.526v-22.298c0-3.93 2.09659-7.5611 5.5-9.5261l19.3101-11.1487c3.4035-1.9649 7.5966-1.9649 11 0z" stroke="#fff" stroke-opacity=".8" stroke-width="2"/></g><path d="m48.8077 112.881h-25.3077c-.7733 0-1.406.633-1.406 1.406v7.297c0 .282.0141.563.0422.844.2812 4.33 2.9525 7.002 7.283 7.283.2812.028.5624.042.8436.042h11.7821c.2812 0 .5624-.014.8436-.042 4.3304-.281 7.0018-2.953 7.283-7.283.0281-.281.0421-.562.0421-.844v-7.297c0-.773-.6327-1.406-1.4059-1.406zm-18.2778 8.647c.478.703 1.1248 1.28 1.8699 1.659.5343.253.7452.886.4781 1.42-.1828.366-.5624.577-.942.577-.1547 0-.3234-.042-.464-.113-1.0967-.534-2.0246-1.364-2.6854-2.362-.5624-.843-.5624-1.94 0-2.784.6608-.998 1.5887-1.827 2.6854-2.362.5202-.267 1.1529-.056 1.406.464.2671.535.0562 1.167-.4781 1.42-.7451.38-1.3919.956-1.8699 1.659-.0844.127-.0844.296 0 .422zm13.2865 1.181c-.6748.998-1.6028 1.828-2.6854 2.362-.1547.071-.3093.113-.464.113-.3937 0-.7592-.211-.942-.577-.2671-.534-.0562-1.167.464-1.42.7592-.379 1.406-.956 1.8699-1.659.0985-.126.0985-.295 0-.422-.4639-.703-1.1107-1.279-1.8699-1.659-.5202-.253-.7311-.885-.464-1.42.2531-.52.8858-.731 1.406-.464 1.0826.535 2.0106 1.364 2.6854 2.362.5624.844.5624 1.941 0 2.784z" fill="#2e93ff"/><path d="m50.2136 109.802v.267c0 .774-.6327 1.406-1.4059 1.406l-25.3077.014c-.7733 0-1.406-.632-1.406-1.405v-.282c0-.281.0141-.562.0422-.843.2812-4.331 2.9525-7.002 7.283-7.283.2812-.028.5624-.042.8436-.042h11.7821c.2812 0 .5624.014.8436.042 4.3304.281 7.0018 2.952 7.283 7.283.0281.281.0421.562.0421.843z" fill="#2e93ff"/><g filter="url(#d)" shape-rendering="crispEdges"><path d="m171.154 3.4641c3.713-2.14359 8.287-2.14359 12 0l19.31 11.1487c3.713 2.1436 6 6.1051 6 10.3923v22.2974c0 4.2872-2.287 8.2488-6 10.3923l-19.31 11.1488c-3.713 2.1436-8.287 2.1436-12 0l-19.31-11.1488c-3.713-2.1435-6-6.1051-6-10.3923v-22.2974c0-4.2872 2.287-8.2487 6-10.3923z" fill="#2e93ff" fill-opacity=".1"/><path d="m182.654 4.33012 19.31 11.14868c3.403 1.965 5.5 5.5964 5.5 9.5263v22.2974c0 3.93-2.097 7.5614-5.5 9.5263l-19.31 11.1487c-3.404 1.965-7.597 1.965-11 0l-19.31-11.1487c-3.404-1.9649-5.5-5.5963-5.5-9.5263v-22.2974c0-3.9299 2.096-7.5613 5.5-9.5263l19.31-11.14868c3.403-1.96496 7.596-1.96496 11 0z" stroke="#fff" stroke-opacity=".8" stroke-width="2"/></g><path d="m177.154 43.6758c1.266 0 2.292-1.0261 2.292-2.2918s-1.026-2.2917-2.292-2.2917-2.292 1.026-2.292 2.2917 1.026 2.2918 2.292 2.2918z" fill="#2e93ff"/><path d="m185.983 32.681v-1.7574c0-3.7962-.914-8.8296-8.829-8.8296-7.916 0-8.83 5.0334-8.83 8.8296v1.7574c-3.937.4921-5.23 2.4886-5.23 7.3955v2.6151c0 5.7646 1.757 7.5221 7.522 7.5221h13.076c5.764 0 7.522-1.7575 7.522-7.5221v-2.6151c0-4.9069-1.294-6.9034-5.231-7.3955zm-8.829 12.9492c-2.348 0-4.246-1.9122-4.246-4.2461 0-2.348 1.912-4.2461 4.246-4.2461s4.246 1.9122 4.246 4.2461c0 2.348-1.898 4.2461-4.246 4.2461zm-6.538-13.0757c-.112 0-.211 0-.323 0v-1.6309c0-4.1196 1.167-6.8612 6.861-6.8612s6.861 2.7416 6.861 6.8612v1.645c-.112 0-.211 0-.323 0h-13.076z" fill="#2e93ff"/><g filter="url(#e)" shape-rendering="crispEdges"><path d="m312.154 83.0012c3.712-2.1436 8.287-2.1436 12 0l19.31 11.1487c3.713 2.1436 6 6.1051 6 10.3921v22.298c0 4.287-2.287 8.248-6 10.392l-19.31 11.149c-3.713 2.143-8.288 2.143-12 0l-19.311-11.149c-3.712-2.144-6-6.105-6-10.392v-22.298c0-4.287 2.288-8.2485 6-10.3921z" fill="#2e93ff" fill-opacity=".1"/><path d="m323.654 83.8672 19.31 11.1487c3.403 1.965 5.5 5.5961 5.5 9.5261v22.298c0 3.93-2.097 7.561-5.5 9.526l-19.31 11.149c-3.404 1.965-7.597 1.965-11 0l-19.311-11.149c-3.403-1.965-5.5-5.596-5.5-9.526v-22.298c0-3.93 2.097-7.5611 5.5-9.5261l19.311-11.1487c3.403-1.9649 7.596-1.9649 11 0z" stroke="#fff" stroke-opacity=".8" stroke-width="2"/></g><path d="m323.778 110.069h-11.248v11.248h11.248z" fill="#2e93ff"/><path d="m304.094 125.535c0 2.32 1.898 4.218 4.218 4.218s4.218-1.898 4.218-4.218v-4.218h-4.218c-2.32 0-4.218 1.898-4.218 4.218z" fill="#2e93ff"/><path d="m308.312 101.634c-2.32 0-4.218 1.898-4.218 4.217 0 2.32 1.898 4.218 4.218 4.218h4.218v-4.218c0-2.319-1.898-4.217-4.218-4.217z" fill="#2e93ff"/><path d="m332.214 105.851c0-2.319-1.898-4.217-4.218-4.217s-4.218 1.898-4.218 4.217v4.218h4.218c2.32 0 4.218-1.898 4.218-4.218z" fill="#2e93ff"/><path d="m327.996 121.317h-4.218v4.218c0 2.32 1.898 4.218 4.218 4.218s4.218-1.898 4.218-4.218-1.898-4.218-4.218-4.218z" fill="#2e93ff"/><g filter="url(#f)" shape-rendering="crispEdges"><path d="m30.1538 227.619c3.7129-2.144 8.2872-2.144 12 0l19.3102 11.148c3.7128 2.144 6 6.105 6 10.393v22.297c0 4.287-2.2872 8.249-6 10.392l-19.3102 11.149c-3.7128 2.144-8.2871 2.144-12 0l-19.3101-11.149c-3.71282-2.143-6-6.105-6-10.392v-22.297c0-4.288 2.28718-8.249 6-10.393z" fill="#2e93ff" fill-opacity=".1"/><path d="m41.6538 228.485 19.3102 11.148c3.4034 1.965 5.5 5.597 5.5 9.527v22.297c0 3.93-2.0966 7.561-5.5 9.526l-19.3102 11.149c-3.4034 1.965-7.5965 1.965-11 0l-19.3101-11.149c-3.40341-1.965-5.5-5.596-5.5-9.526v-22.297c0-3.93 2.09659-7.562 5.5-9.527l19.3101-11.148c3.4035-1.965 7.5966-1.965 11 0z" stroke="#fff" stroke-opacity=".8" stroke-width="2"/></g><path d="m46.7409 251.211-19.6838 19.683c-.0281.029-.0422.043-.0703.057-.5343-.45-1.0264-.942-1.4763-1.477-2.1371-2.46-3.4165-5.666-3.4165-9.167 0-7.761 6.2988-14.059 14.0598-14.059 3.5009 0 6.7066 1.279 9.167 3.416.5343.45 1.0264.942 1.4763 1.476-.0141.029-.0281.043-.0562.071z" fill="#2e93ff"/><path d="m50.2137 260.307c0 7.719-6.341 14.06-14.0599 14.06-2.1089 0-4.1054-.464-5.9051-1.307-.8717-.408-1.0404-1.575-.3655-2.264l16.7593-16.759c.6748-.675 1.8559-.506 2.2636.365.8436 1.786 1.3076 3.796 1.3076 5.905z" fill="#2e93ff"/><path d="m49.8903 246.571c-.4218-.422-1.1107-.422-1.5325 0l-25.9404 25.954c-.4218.422-.4218 1.111 0 1.533.2109.197.4781.309.7593.309.2811 0 .5483-.112.7592-.323l25.9544-25.955c.4359-.421.4359-1.096 0-1.518z" fill="#2e93ff"/></svg>