<svg width="43" height="50" viewBox="0 0 43 50" fill="none" xmlns="http://www.w3.org/2000/svg">
<path d="M19.6663 22.438L7.07373 15.2514C7.10203 15.0277 7.10203 14.804 7.07373 14.5803L19.6663 7.40771C20.7275 8.17671 22.1707 8.17671 23.2319 7.40771L35.8104 14.5803C35.7821 14.804 35.7821 15.0277 35.8104 15.2514L23.2319 22.424C22.1707 21.655 20.7275 21.655 19.6663 22.438Z" fill="white"/>
<path d="M19.822 42.7115C19.6097 42.7954 19.4258 42.9073 19.2419 43.0471L6.64923 35.8605C6.79072 34.5602 6.06912 33.3298 4.86646 32.8125V18.4534C5.07869 18.3695 5.26263 18.2576 5.44656 18.1178L18.025 25.2904C17.8835 26.5907 18.6051 27.8211 19.8078 28.3384V42.7115H19.822Z" fill="white"/>
<path d="M38.0319 32.8127C36.8292 33.33 36.0935 34.5744 36.2491 35.8607L23.6707 43.0333C23.4867 42.9074 23.2886 42.7956 23.0906 42.6977L23.0623 28.4364C24.2649 27.9191 25.0007 26.6747 24.845 25.3884L37.4376 18.132C37.6216 18.2578 37.8197 18.3696 38.0178 18.4675V32.8127H38.0319Z" fill="white"/>
<path d="M21.4492 2.61214L41.0597 13.7975V36.1681L21.4492 47.3534L1.83864 36.1821V13.7975L21.4492 2.61214ZM21.4492 0.514893L20.5295 1.0462L0.918953 12.2315L-0.000732422 12.7488V13.7975V36.1681V37.2167L0.918953 37.748L20.5295 48.9334L21.4492 49.4647L22.3689 48.9334L41.9794 37.748L42.8991 37.2167V36.1681V13.7975V12.7488L41.9794 12.2175L22.3689 1.03221L21.4492 0.514893Z" fill="white"/>
</svg>
