<svg width="275" height="275" viewBox="0 0 275 275" fill="none" xmlns="http://www.w3.org/2000/svg">
<path d="M232.112 145.575L232.103 145.573L232.094 145.571C230.79 145.265 229.519 144.948 228.237 144.603L228.202 144.594L228.166 144.585C227.114 144.318 226.059 144.021 224.972 143.7L224.934 143.689L224.896 143.679C224.393 143.539 223.991 143.423 223.599 143.292L223.478 143.252L223.356 143.218C222.632 143.017 221.941 142.812 221.268 142.587L221.196 142.563L221.123 142.542C221.05 142.52 220.988 142.501 220.933 142.485C220.698 142.414 220.623 142.392 220.552 142.366L220.411 142.314L220.267 142.27C219.464 142.028 218.654 141.754 217.804 141.453L217.765 141.439L217.726 141.426C216.194 140.911 214.672 140.371 213.187 139.807L213.185 139.806C211.964 139.343 210.75 138.869 209.555 138.382L209.546 138.379L209.537 138.375C208.417 137.924 207.32 137.458 206.204 136.962L206.118 136.924L206.03 136.889L205.983 136.87L205.947 136.856C205.942 136.853 205.937 136.851 205.933 136.85L205.865 136.816L205.749 136.765C205.522 136.665 205.297 136.566 205.074 136.468C204.308 128.779 202.261 121.456 199.157 114.739L199.154 114.733C198.176 112.624 197.088 110.522 195.859 108.486C192.149 102.22 187.465 96.6076 182.008 91.8474C178.887 89.1144 175.502 86.6607 171.899 84.5324C161.676 78.4443 149.746 74.9684 137.013 74.9684C124.276 74.9684 112.375 78.4463 102.171 84.503C98.5639 86.6335 95.1672 89.1008 92.0386 91.8267L92.0306 91.8337C86.5765 96.606 81.892 102.218 78.181 108.486C76.9624 110.503 75.8572 112.606 74.8781 114.75C71.7773 121.462 69.7322 128.778 68.9661 136.461C68.9244 136.479 68.8828 136.497 68.8412 136.514L68.7866 136.538L68.7326 136.562C68.2476 136.783 67.8308 136.972 67.4243 137.144L67.3822 137.162L67.3405 137.181C66.3585 137.619 65.3489 138.036 64.3032 138.449L64.2595 138.466L64.216 138.484C63.4137 138.819 62.5897 139.143 61.756 139.457L61.7279 139.468L61.7 139.479C59.3065 140.414 56.8568 141.273 54.3451 142.082L54.3051 142.095L54.2653 142.109C53.6439 142.321 53.0899 142.504 52.5626 142.657L52.4791 142.681L52.3965 142.708C51.6792 142.942 51.0521 143.138 50.4284 143.302L50.2434 143.351L50.0627 143.414C49.9487 143.454 49.8973 143.468 49.7943 143.497C49.6997 143.524 49.5615 143.563 49.291 143.645C48.1432 143.977 47.0056 144.291 45.8475 144.591L45.8183 144.599L45.7892 144.607C44.537 144.947 43.2562 145.264 41.9487 145.573L41.9472 145.574C30.4919 148.287 18.3901 149.855 5.64383 150.223C5.21657 145.861 5 141.458 5 137.056C5 115.074 10.3932 94.3381 19.9296 76.097L19.9306 76.0952C22.2021 71.746 24.7118 67.544 27.4333 63.4893C42.7329 40.77 64.8961 23.0493 90.9133 13.3327L90.9328 13.3255L90.9522 13.318C92.89 12.5759 94.8488 11.8912 96.8145 11.2769L96.8344 11.2707L96.8542 11.2644C109.516 7.19141 123.016 5 137.041 5C151.066 5 164.538 7.19118 177.189 11.251L177.197 11.2535L177.205 11.2561C179.219 11.8952 181.187 12.5699 183.127 13.3078L183.141 13.313L183.154 13.318C209.158 23.0346 231.322 40.7558 246.637 63.4633C249.36 67.5198 251.881 71.7334 254.149 76.0894L254.153 76.097C263.69 94.3381 269.083 115.074 269.083 137.056C269.083 141.457 268.866 145.866 268.44 150.224C255.676 149.858 243.563 148.3 232.112 145.575Z" stroke="white" stroke-width="10"/>
<path d="M147.007 145.644L147.008 145.645C182.868 175.282 223.126 186.223 258.752 188.58C238.595 236.632 191.401 269.112 137.04 269.112C82.6795 269.112 35.486 236.632 15.3293 188.58C50.9543 186.223 91.2125 175.282 127.059 145.644C132.852 140.855 141.215 140.855 147.007 145.644Z" stroke="white" stroke-width="10"/>
</svg>
