<svg width="127" height="128" viewBox="0 0 127 128" fill="none" xmlns="http://www.w3.org/2000/svg">
<path d="M126.765 63.8658C126.765 66.6925 126.578 69.5258 126.213 72.2993C119.389 72.2528 112.924 71.5012 106.831 70.0513C106.206 69.9049 105.594 69.752 104.976 69.5857C104.45 69.4527 103.932 69.3063 103.413 69.1534C103.173 69.0869 102.941 69.0204 102.701 68.9405C102.342 68.8408 101.983 68.7344 101.624 68.6146C101.491 68.5747 101.351 68.5348 101.225 68.4883C100.806 68.3619 100.393 68.2222 99.9808 68.0759C99.2492 67.8298 98.5176 67.5704 97.7992 67.2977C97.2206 67.0782 96.642 66.8521 96.07 66.6193C95.5246 66.3998 94.9925 66.1737 94.4538 65.9343C94.3872 65.9076 94.3207 65.881 94.2542 65.8478C93.7687 65.635 93.2898 65.4221 92.8109 65.196C92.7644 65.176 92.7178 65.1494 92.6713 65.1295C92.4651 61.3583 91.5406 57.7734 90.0374 54.521C89.6118 53.6032 89.1462 52.7053 88.6274 51.8473C87.0378 49.1603 85.0292 46.7526 82.688 44.7107C81.3512 43.5401 79.9012 42.4892 78.3582 41.578C73.9818 38.9708 68.8737 37.481 63.4132 37.481C57.9527 37.481 52.858 38.9708 48.4882 41.5647C46.9452 42.4759 45.4886 43.5335 44.1451 44.704C41.8039 46.7526 39.7953 49.1603 38.2057 51.8473C37.6869 52.7053 37.2146 53.6032 36.7956 54.521C35.2925 57.7734 34.368 61.3583 34.1618 65.1295C34.1219 65.1494 34.0753 65.1694 34.0288 65.1893C33.6231 65.3822 33.2174 65.5685 32.8116 65.7414C32.5922 65.8411 32.3727 65.9409 32.1532 66.034C31.661 66.2535 31.1622 66.4597 30.6567 66.6592C30.2576 66.8255 29.8519 66.9851 29.4462 67.1381C28.2889 67.5904 27.1117 68.0027 25.9145 68.3885C25.6218 68.4883 25.3225 68.588 25.0232 68.6745C24.6774 68.7876 24.3382 68.894 23.9857 68.9871C23.8327 69.0403 23.6797 69.0802 23.5267 69.1268C22.9747 69.2864 22.4227 69.4394 21.8573 69.5857C21.2454 69.752 20.6269 69.9049 20.0083 70.0513C13.9159 71.4945 7.45776 72.2528 0.640416 72.2993C0.274608 69.5192 0.0883789 66.6925 0.0883789 63.8658C0.0883789 53.3238 2.67564 43.3738 7.25158 34.621C8.34235 32.5326 9.5462 30.5173 10.8498 28.5752C18.1859 17.6808 28.8143 9.18069 41.2984 4.51829C42.2362 4.15913 43.1873 3.82658 44.1451 3.52728C50.2241 1.57187 56.7023 0.520996 63.4265 0.520996C70.1507 0.520996 76.6156 1.57187 82.688 3.52063C83.6524 3.82658 84.6035 4.15248 85.548 4.51164C98.0254 9.17404 108.654 17.6741 115.997 28.5619C117.3 30.504 118.511 32.5259 119.601 34.621C124.177 43.3738 126.765 53.3238 126.765 63.8658Z" fill="white"/>
<path d="M3.85889 85.5351C20.7326 84.9232 40.1737 80.2475 57.3401 66.0541C60.8719 63.1343 65.9732 63.1343 69.5049 66.0541C86.678 80.2475 106.119 84.9232 122.993 85.5351C114.094 110.25 90.6221 127.211 63.4259 127.211C36.2296 127.211 12.758 110.25 3.85889 85.5351Z" fill="white"/>
</svg>
